<svg xmlns="http://www.w3.org/2000/svg" viewBox="0 0 96 96" role="img" aria-labelledby="title desc">
  <title id="title">Iris bear icon</title>
  <desc id="desc">A soft cream bear face with cocoa ears and a dusty rose bow.</desc>
  <rect width="96" height="96" rx="28" fill="#FFF7EF"/>
  <circle cx="28" cy="31" r="14" fill="#B9866C"/>
  <circle cx="68" cy="31" r="14" fill="#B9866C"/>
  <circle cx="28" cy="31" r="8" fill="#F5E7DA"/>
  <circle cx="68" cy="31" r="8" fill="#F5E7DA"/>
  <path fill="#FDF5EA" d="M21 48c0-20 13-32 27-32s27 12 27 32c0 18-11 30-27 30S21 66 21 48Z"/>
  <path fill="#E7B6B0" d="M43 23c-6-8-17-7-22-1 3 6 12 9 21 6 0 0 1-2 1-5Zm10 0c6-8 17-7 22-1-3 6-12 9-21 6 0 0-1-2-1-5Z"/>
  <rect x="43" y="19" width="10" height="11" rx="4" fill="#C98F83"/>
  <circle cx="39" cy="49" r="3.2" fill="#4A3528"/>
  <circle cx="57" cy="49" r="3.2" fill="#4A3528"/>
  <path d="M46 57c2 2 4 2 6 0" fill="none" stroke="#7B5A45" stroke-width="2.2" stroke-linecap="round"/>
  <path d="M32 68c8 6 24 7 33 0" fill="none" stroke="#E6D7CA" stroke-width="3" stroke-linecap="round"/>
</svg>
